<svg xmlns="http://www.w3.org/2000/svg" width="207" height="38" fill="none"><path fill="#9C9C9C" fill-rule="evenodd" d="M12.968 34.322a.912.912 0 0 1-.383-.088.865.865 0 0 1-.304-.239 2.254 2.254 0 0 1-.45-.977 12.62 12.62 0 0 1-.25-1.367 15.66 15.66 0 0 1-.107-1.782c-.02-1.309-.016-2.617.014-3.925.018-.804.026-1.43.026-1.882V9.106c0-.737.005-1.297.014-1.682.01-.384.04-.819.091-1.304.03-.361.097-.718.2-1.066.1-.27.233-.526.395-.766.15-.251.369-.46.634-.602.309-.146.627-.275.951-.389a6.616 6.616 0 0 1 1.293-.313 40.11 40.11 0 0 1 1.731-.202V1.401l-.45-.427H.423L0 1.4v1.18c2.677.15 4.173.87 4.49 2.157.184 1.087.272 2.187.264 3.287v22.908a21.815 21.815 0 0 1-.159 3.563c-.073.185-.18.354-.317.502a9.61 9.61 0 0 1-.646.664c-.18.165-.35.337-.515.515v.878c13.611 0 22.036.084 25.275.252l1.137-3.639-.713-.477a167.09 167.09 0 0 1-15.847 1.13h-.001Zm25.3-10.488a.768.768 0 0 1-.158.025c-.264 0-.396-.092-.396-.276a15.89 15.89 0 0 1 .198-2.484c.149-.897.396-1.776.74-2.622A9.799 9.799 0 0 1 40 16.068a6.278 6.278 0 0 1 2.267-1.779 6.632 6.632 0 0 1 2.87-.617 4.34 4.34 0 0 1 2.077.405c.643.304 1.193.761 1.593 1.327a6.633 6.633 0 0 1 1.243 3.964c-.004.258-.09.51-.249.72-.158.211-.38.371-.637.459a44.774 44.774 0 0 1-4.424 1.43c-2.11.59-4.214 1.2-6.31 1.833a.778.778 0 0 0-.163.024Zm15.688 7.828c-3.171 1.823-5.909 2.735-8.213 2.735a7.81 7.81 0 0 1-4.385-1.23 7.562 7.562 0 0 1-2.76-3.073 9.07 9.07 0 0 1-.884-3.977c11.515-3.395 17.325-5.093 17.43-5.093.458-.09.867-.33 1.152-.68.286-.35.43-.785.406-1.227a6.856 6.856 0 0 0-.884-3.538 6.281 6.281 0 0 0-2.39-2.346 11.955 11.955 0 0 0-3.262-1.23 17.536 17.536 0 0 0-3.792-.389 16.75 16.75 0 0 0-6.653 1.268 12.72 12.72 0 0 0-4.767 3.388 15.184 15.184 0 0 0-2.76 4.767 16.242 16.242 0 0 0-.951 5.532c0 3.865 1.102 6.759 3.302 8.682 1.989 1.757 4.798 2.634 8.424 2.634 2.08-.02 4.126-.492 5.983-1.38a46.735 46.735 0 0 0 6.404-3.664l-.578-.976-.822-.203Zm35.57-26.457c-.707-1.752-2.097-3.18-3.882-3.99A17.192 17.192 0 0 0 78.646.013c-1.75-.01-3.494.193-5.19.602-1.577.38-3.082.99-4.463 1.807a8.895 8.895 0 0 0-3.209 3.275 9.372 9.372 0 0 0-1.189 4.754c0 1.185.303 2.351.885 3.4a9.573 9.573 0 0 0 2.218 2.748c.98.82 2.022 1.57 3.116 2.246a36.82 36.82 0 0 0 3.408 1.906 60.168 60.168 0 0 1 3.249 1.707 14.602 14.602 0 0 1 2.469 1.668c1.953 1.724 2.931 3.363 2.931 4.919a5.783 5.783 0 0 1-.535 2.4 6.067 6.067 0 0 1-1.498 2.002 6.712 6.712 0 0 1-2.234 1.438c-.84.33-1.743.494-2.652.482a7.304 7.304 0 0 1-3.087-.59 6.941 6.941 0 0 1-2.499-1.819c-1.401-1.521-2.167-3.476-2.151-5.496l-1.03-.351-5.255 5.595a12.145 12.145 0 0 0 4.729 3.852 14.506 14.506 0 0 0 6.206 1.343 20.632 20.632 0 0 0 5.784-.854 21.924 21.924 0 0 0 5.335-2.322 12.58 12.58 0 0 0 3.92-3.712 8.386 8.386 0 0 0 1.52-4.78 7.069 7.069 0 0 0-.501-2.672 8.427 8.427 0 0 0-1.295-2.209 11.338 11.338 0 0 0-2.205-1.97 28.399 28.399 0 0 0-2.813-1.77 98.271 98.271 0 0 0-3.538-1.819 46.579 46.579 0 0 1-2.457-1.217 29.619 29.619 0 0 1-2.222-1.362 10.97 10.97 0 0 1-2.005-1.67 7.677 7.677 0 0 1-1.269-1.959 5.698 5.698 0 0 1-.527-2.42 4.86 4.86 0 0 1 .377-1.993 5.077 5.077 0 0 1 1.165-1.696 5.48 5.48 0 0 1 1.874-1.159 5.712 5.712 0 0 1 2.207-.346 6.638 6.638 0 0 1 2.723.462c.86.343 1.63.861 2.255 1.52a8.567 8.567 0 0 1 2.258 4.792l.925.275 5.15-3.814Zm25.684 9.623a5.218 5.218 0 0 0-1.981-1.881 9.845 9.845 0 0 0-2.614-.966 14.114 14.114 0 0 0-2.998-.301 16.421 16.421 0 0 0-5.638.916 12.382 12.382 0 0 0-4.173 2.421 13.197 13.197 0 0 0-2.746 3.55 16.292 16.292 0 0 0-1.572 4.203 20.816 20.816 0 0 0-.475 4.49 12.56 12.56 0 0 0 .567 3.787c.37 1.19.947 2.313 1.703 3.325a7.787 7.787 0 0 0 3.104 2.409c1.42.615 2.968.92 4.529.89 4.948 0 9.596-2.066 13.945-6.197l-.528-.728-.66-.15c-3.222 2.359-6.198 3.538-8.927 3.538a6.598 6.598 0 0 1-2.944-.64 5.882 5.882 0 0 1-2.103-1.655 9.888 9.888 0 0 1-1.334-2.334c-.347-.83-.6-1.691-.753-2.571-.14-.83-.21-1.67-.21-2.51.005-1.068.102-2.133.29-3.186.207-1.172.516-2.326.924-3.45a7.157 7.157 0 0 1 1.875-2.911c.38-.365.832-.653 1.331-.85a4.24 4.24 0 0 1 1.575-.291 4.06 4.06 0 0 1 2.074.444c.634.328 1.16.817 1.517 1.413a8.445 8.445 0 0 1 1.162 4.567l.925.35 4.991-2.809a6.112 6.112 0 0 0-.856-2.873Zm9.68 7.465c.134-.985.368-1.956.7-2.898.303-.916.734-1.789 1.28-2.597a6.007 6.007 0 0 1 2.048-1.819 5.88 5.88 0 0 1 2.918-.715 6.076 6.076 0 0 1 3.155.79 5.324 5.324 0 0 1 2.047 2.158c.478.919.823 1.893 1.029 2.898a16.2 16.2 0 0 1 .317 3.287c0 1.004-.009 1.84-.027 2.509-.028.805-.089 1.609-.184 2.41a13.742 13.742 0 0 1-.436 2.332c-.207.674-.477 1.33-.805 1.958a4.95 4.95 0 0 1-1.281 1.63 6.458 6.458 0 0 1-1.876 1.004 7.626 7.626 0 0 1-2.574.401 4.87 4.87 0 0 1-2.708-.778 5.876 5.876 0 0 1-1.887-1.919 11.478 11.478 0 0 1-1.136-2.621 16.54 16.54 0 0 1-.608-2.75 19.609 19.609 0 0 1-.159-2.42c0-.956.062-1.911.187-2.86Zm-3.275 12.973c1.918 1.655 4.965 2.483 9.138 2.483a19.98 19.98 0 0 0 4.582-.502 13.933 13.933 0 0 0 3.985-1.618 11.597 11.597 0 0 0 3.183-2.798c.95-1.26 1.657-2.67 2.086-4.165a18.88 18.88 0 0 0 .767-5.57 9.974 9.974 0 0 0-.871-4.417 10.485 10.485 0 0 0-2.748-3.663c-2.202-1.872-5.397-2.81-9.587-2.81-4.19 0-7.641 1.23-10.353 3.69a12.322 12.322 0 0 0-3.082 4.242 11.76 11.76 0 0 0-.985 5.066c0 4.483 1.293 7.837 3.882 10.062h.003Zm41.33-19.873c1.409 0 2.413.268 3.012.803.558.646.91 1.43 1.015 2.26.222.978.359 1.973.41 2.973.035.878.053 2.012.053 3.4a406.093 406.093 0 0 1-.039 5.407c-.009.543-.005 1.183.012 1.92.005.549.04 1.098.106 1.643.053.36.124.754.212 1.179.061.357.186.7.369 1.016.159.251.353.48.579.679a4.226 4.226 0 0 0 2.904 1.002c1.322 0 2.835-.636 4.543-1.906a48.851 48.851 0 0 0 4.068-3.59l-.608-.854h-.634a6.644 6.644 0 0 1-3.617 1.33c-.28.016-.56-.023-.823-.114a2.094 2.094 0 0 1-.71-.412 1.967 1.967 0 0 1-.462-.488 3.432 3.432 0 0 1-.277-1.03 13.827 13.827 0 0 1-.132-2.17c0-.552.031-1.443.092-2.672.049-.873.08-1.748.093-2.622V21.64c.017-1.623.013-2.747-.013-3.376a22.707 22.707 0 0 0-.304-2.558 4.505 4.505 0 0 0-.819-2.234 5.487 5.487 0 0 0-1.638-1.153 6.01 6.01 0 0 0-2.693-.54c-3.099 0-6.691 1.204-10.775 3.613l-.634-.226a4.607 4.607 0 0 0-.911-2.57c-.52-.646-1.413-.967-2.681-.967a7.576 7.576 0 0 0-2.232.363 11.08 11.08 0 0 0-2.378 1.079c-.801.477-1.496.92-2.086 1.33-.59.41-1.273.907-2.047 1.493l.977 1.23c.179-.111.36-.22.542-.327.307-.184.576-.334.805-.451.228-.117.502-.255.818-.415.284-.146.58-.268.886-.366a2.57 2.57 0 0 1 .725-.125 1.72 1.72 0 0 1 .872.213c.268.168.471.415.579.703.132.304.246.612.342.928.109.424.171.857.186 1.293.036.57.057 1.029.064 1.38.008.35.012.877.013 1.58v.427c0 1.64-.132 6.657-.396 15.054l.66.352 5.943-1.632c-.177-.718-.309-2.985-.397-6.798-.087-3.73-.13-7.46-.128-11.191 3.063-1.573 5.246-2.359 6.549-2.359l.005.002Zm25.618 8.555a.725.725 0 0 1-.158.026c-.264 0-.396-.092-.397-.275.001-.833.067-1.662.2-2.485a12.34 12.34 0 0 1 .738-2.622 9.833 9.833 0 0 1 1.347-2.409 6.273 6.273 0 0 1 2.267-1.78 6.629 6.629 0 0 1 2.87-.616 4.337 4.337 0 0 1 2.077.405c.644.304 1.193.761 1.594 1.327a6.629 6.629 0 0 1 1.241 3.964 1.23 1.23 0 0 1-.249.72c-.158.21-.38.37-.636.459a44.952 44.952 0 0 1-4.422 1.43c-2.112.59-4.216 1.2-6.313 1.833a.825.825 0 0 0-.158.024l-.001-.001Zm15.688 7.83c-3.171 1.823-5.909 2.735-8.214 2.734a7.816 7.816 0 0 1-4.384-1.229 7.56 7.56 0 0 1-2.759-3.073 9.077 9.077 0 0 1-.886-3.979c11.515-3.394 17.326-5.092 17.432-5.092.457-.089.866-.33 1.151-.68.286-.35.43-.785.406-1.227a6.851 6.851 0 0 0-.884-3.538 6.28 6.28 0 0 0-2.39-2.346 11.971 11.971 0 0 0-3.262-1.23 17.539 17.539 0 0 0-3.793-.389 16.746 16.746 0 0 0-6.651 1.268 12.722 12.722 0 0 0-4.767 3.387 15.167 15.167 0 0 0-2.759 4.768 16.197 16.197 0 0 0-.951 5.532c0 3.865 1.1 6.758 3.301 8.682 1.989 1.757 4.797 2.634 8.424 2.634 2.08-.02 4.126-.492 5.983-1.38a46.892 46.892 0 0 0 6.404-3.664l-.578-.977-.823-.202Z" clip-rule="evenodd"/></svg>