<svg width="32" height="32" viewBox="0 0 32 32" fill="none" xmlns="http://www.w3.org/2000/svg">
<g clip-path="url(#clip0_85_1389)">
<circle cx="16" cy="16" r="16" fill="white"/>
<path d="M23.5833 11.5833H22.695L20.8533 6.51333C20.7009 6.09527 20.4239 5.73403 20.0597 5.47833C19.6955 5.22263 19.2617 5.08476 18.8167 5.08333H17.0833C16.4875 5.08333 16 5.57083 16 6.16666C16 6.76249 16.4875 7.24999 17.0833 7.24999H18.8167L20.3983 11.5833H15.1875L14.7975 10.5H14.895C15.4908 10.5 15.9783 10.0125 15.9783 9.41666C15.9783 8.82083 15.4908 8.33333 14.895 8.33333H11.6667C11.0708 8.33333 10.5833 8.82083 10.5833 9.41666C10.5833 10.0125 11.0708 10.5 11.6667 10.5H12.4792L14.4508 15.9167H13.725C13.2483 13.5008 11.2225 11.7133 8.6875 11.5942C5.65417 11.4425 3 13.9667 3 17C3 20.0333 5.38333 22.4167 8.41667 22.4167C11.0817 22.4167 13.2375 20.5858 13.725 18.0833H18.275C18.7517 20.4992 20.7775 22.2867 23.3125 22.4058C26.3458 22.5467 29 20.0333 29 16.9892C29 13.9667 26.6167 11.5833 23.5833 11.5833ZM9.5 18.0833H11.4717C11.0167 19.4158 9.73833 20.3367 8.2 20.2392C6.58583 20.1417 5.2425 18.7767 5.16667 17.1517C5.09083 15.2558 6.5425 13.75 8.41667 13.75C9.8575 13.75 11.0383 14.6492 11.4717 15.9167H9.5C8.90417 15.9167 8.41667 16.4042 8.41667 17C8.41667 17.5958 8.90417 18.0833 9.5 18.0833ZM18.275 15.9167H16.7583L15.9675 13.75H19.25C18.7733 14.3783 18.4267 15.1042 18.275 15.9167ZM23.4533 20.25C21.785 20.185 20.3767 18.7658 20.3333 17.0867C20.3117 16.0467 20.7558 15.1367 21.4708 14.53L22.1425 16.3717C22.3483 16.935 22.9658 17.2275 23.5292 17.0217C24.0925 16.8158 24.385 16.1983 24.1792 15.635L23.4967 13.7608L23.5075 13.75C23.9418 13.7352 24.3747 13.8086 24.7799 13.9657C25.1851 14.1228 25.5543 14.3604 25.8651 14.6641C26.1759 14.9679 26.422 15.3314 26.5884 15.7329C26.7548 16.1344 26.8381 16.5654 26.8333 17C26.8333 18.8633 25.3383 20.315 23.4533 20.25Z" fill="url(#paint0_linear_85_1389)"/>
</g>
<defs>
<linearGradient id="paint0_linear_85_1389" x1="16" y1="5.08333" x2="16" y2="22.4167" gradientUnits="userSpaceOnUse">
<stop stop-color="#FFB60D"/>
<stop offset="1" stop-color="#E59317"/>
</linearGradient>
<clipPath id="clip0_85_1389">
<rect width="32" height="32" fill="white"/>
</clipPath>
</defs>
</svg>
